<svg width="56" height="56" viewBox="0 0 56 56" fill="none" xmlns="http://www.w3.org/2000/svg">
<path opacity="0.5" d="M16.3333 14C15.7145 14 15.121 13.7541 14.6834 13.3165C14.2458 12.879 14 12.2855 14 11.6666V6.99996C14 6.38112 14.2458 5.78763 14.6834 5.35004C15.121 4.91246 15.7145 4.66663 16.3333 4.66663C16.9522 4.66663 17.5457 4.91246 17.9832 5.35004C18.4208 5.78763 18.6667 6.38112 18.6667 6.99996V11.6666C18.6667 12.2851 18.4212 12.8782 17.9841 13.3157C17.547 13.7532 16.9541 13.9993 16.3357 14H16.3333ZM39.6667 14C39.0478 14 38.4543 13.7541 38.0167 13.3165C37.5792 12.879 37.3333 12.2855 37.3333 11.6666V6.99996C37.3333 6.38112 37.5792 5.78763 38.0167 5.35004C38.4543 4.91246 39.0478 4.66663 39.6667 4.66663C40.2855 4.66663 40.879 4.91246 41.3166 5.35004C41.7542 5.78763 42 6.38112 42 6.99996V11.6666C42 12.2851 41.7545 12.8782 41.3174 13.3157C40.8803 13.7532 40.2874 13.9993 39.669 14H39.6667Z" fill="#2D76F9"/>
<path d="M44.3333 9.33337H42V11.6667C42 12.2855 41.7541 12.879 41.3165 13.3166C40.879 13.7542 40.2855 14 39.6666 14C39.0478 14 38.4543 13.7542 38.0167 13.3166C37.5791 12.879 37.3333 12.2855 37.3333 11.6667V9.33337H18.6666V11.6667C18.6666 12.2855 18.4208 12.879 17.9832 13.3166C17.5456 13.7542 16.9521 14 16.3333 14C15.7145 14 15.121 13.7542 14.6834 13.3166C14.2458 12.879 14 12.2855 14 11.6667V9.33337H11.6666C9.81011 9.33337 8.02963 10.0709 6.71688 11.3836C5.40412 12.6964 4.66663 14.4769 4.66663 16.3334V21H51.3333V16.3334C51.3333 14.4769 50.5958 12.6964 49.283 11.3836C47.9703 10.0709 46.1898 9.33337 44.3333 9.33337Z" fill="#2D76F9"/>
<path d="M16.3333 32.6667C17.622 32.6667 18.6667 31.622 18.6667 30.3333C18.6667 29.0447 17.622 28 16.3333 28C15.0447 28 14 29.0447 14 30.3333C14 31.622 15.0447 32.6667 16.3333 32.6667Z" fill="#2D76F9"/>
<path d="M16.3333 42C17.622 42 18.6667 40.9554 18.6667 39.6667C18.6667 38.378 17.622 37.3334 16.3333 37.3334C15.0447 37.3334 14 38.378 14 39.6667C14 40.9554 15.0447 42 16.3333 42Z" fill="#2D76F9"/>
<path d="M28 32.6667C29.2886 32.6667 30.3333 31.622 30.3333 30.3333C30.3333 29.0447 29.2886 28 28 28C26.7113 28 25.6666 29.0447 25.6666 30.3333C25.6666 31.622 26.7113 32.6667 28 32.6667Z" fill="#2D76F9"/>
<path d="M28 42C29.2886 42 30.3333 40.9554 30.3333 39.6667C30.3333 38.378 29.2886 37.3334 28 37.3334C26.7113 37.3334 25.6666 38.378 25.6666 39.6667C25.6666 40.9554 26.7113 42 28 42Z" fill="#2D76F9"/>
<path d="M39.6667 32.6667C40.9554 32.6667 42 31.622 42 30.3333C42 29.0447 40.9554 28 39.6667 28C38.378 28 37.3334 29.0447 37.3334 30.3333C37.3334 31.622 38.378 32.6667 39.6667 32.6667Z" fill="#2D76F9"/>
<path d="M39.6667 42C40.9554 42 42 40.9554 42 39.6667C42 38.378 40.9554 37.3334 39.6667 37.3334C38.378 37.3334 37.3334 38.378 37.3334 39.6667C37.3334 40.9554 38.378 42 39.6667 42Z" fill="#2D76F9"/>
<path opacity="0.5" d="M4.66663 21V44.3333C4.66663 46.1898 5.40412 47.9703 6.71688 49.2831C8.02963 50.5958 9.81011 51.3333 11.6666 51.3333H44.3333C46.1898 51.3333 47.9703 50.5958 49.283 49.2831C50.5958 47.9703 51.3333 46.1898 51.3333 44.3333V21H4.66663ZM16.3333 42C15.7145 42 15.121 41.7542 14.6834 41.3166C14.2458 40.879 14 40.2855 14 39.6667C14 39.0478 14.2458 38.4543 14.6834 38.0168C15.121 37.5792 15.7145 37.3333 16.3333 37.3333C16.9521 37.3333 17.5456 37.5792 17.9832 38.0168C18.4208 38.4543 18.6666 39.0478 18.6666 39.6667C18.6666 40.2855 18.4208 40.879 17.9832 41.3166C17.5456 41.7542 16.9521 42 16.3333 42ZM16.3333 32.6667C15.7145 32.6667 15.121 32.4208 14.6834 31.9832C14.2458 31.5457 14 30.9522 14 30.3333C14 29.7145 14.2458 29.121 14.6834 28.6834C15.121 28.2458 15.7145 28 16.3333 28C16.9521 28 17.5456 28.2458 17.9832 28.6834C18.4208 29.121 18.6666 29.7145 18.6666 30.3333C18.6666 30.9522 18.4208 31.5457 17.9832 31.9832C17.5456 32.4208 16.9521 32.6667 16.3333 32.6667ZM28 42C27.3811 42 26.7876 41.7542 26.35 41.3166C25.9125 40.879 25.6666 40.2855 25.6666 39.6667C25.6666 39.0478 25.9125 38.4543 26.35 38.0168C26.7876 37.5792 27.3811 37.3333 28 37.3333C28.6188 37.3333 29.2123 37.5792 29.6499 38.0168C30.0875 38.4543 30.3333 39.0478 30.3333 39.6667C30.3333 40.2855 30.0875 40.879 29.6499 41.3166C29.2123 41.7542 28.6188 42 28 42ZM28 32.6667C27.3811 32.6667 26.7876 32.4208 26.35 31.9832C25.9125 31.5457 25.6666 30.9522 25.6666 30.3333C25.6666 29.7145 25.9125 29.121 26.35 28.6834C26.7876 28.2458 27.3811 28 28 28C28.6188 28 29.2123 28.2458 29.6499 28.6834C30.0875 29.121 30.3333 29.7145 30.3333 30.3333C30.3333 30.9522 30.0875 31.5457 29.6499 31.9832C29.2123 32.4208 28.6188 32.6667 28 32.6667ZM39.6666 42C39.0478 42 38.4543 41.7542 38.0167 41.3166C37.5791 40.879 37.3333 40.2855 37.3333 39.6667C37.3333 39.0478 37.5791 38.4543 38.0167 38.0168C38.4543 37.5792 39.0478 37.3333 39.6666 37.3333C40.2855 37.3333 40.879 37.5792 41.3165 38.0168C41.7541 38.4543 42 39.0478 42 39.6667C42 40.2855 41.7541 40.879 41.3165 41.3166C40.879 41.7542 40.2855 42 39.6666 42ZM39.6666 32.6667C39.0478 32.6667 38.4543 32.4208 38.0167 31.9832C37.5791 31.5457 37.3333 30.9522 37.3333 30.3333C37.3333 29.7145 37.5791 29.121 38.0167 28.6834C38.4543 28.2458 39.0478 28 39.6666 28C40.2855 28 40.879 28.2458 41.3165 28.6834C41.7541 29.121 42 29.7145 42 30.3333C42 30.9522 41.7541 31.5457 41.3165 31.9832C40.879 32.4208 40.2855 32.6667 39.6666 32.6667Z" fill="#2D76F9"/>
</svg>
